<svg width="29" height="33" viewBox="0 0 29 33" fill="none" xmlns="http://www.w3.org/2000/svg">
<path fill-rule="evenodd" clip-rule="evenodd" d="M27.1117 32.446H4.86998C4.1487 32.446 3.56177 31.8591 3.56177 31.1378V21.4784C3.56177 21.2021 3.78575 20.9781 4.06202 20.9781C4.33829 20.9781 4.56227 21.2021 4.56227 21.4784V31.1378C4.56227 31.3074 4.70028 31.4455 4.86998 31.4455H27.1117C27.2813 31.4455 27.4194 31.3075 27.4194 31.1378V7.00862C27.4194 6.71959 27.3069 6.44775 27.1024 6.24339L22.6059 1.74728C22.4016 1.54292 22.1298 1.43037 21.8407 1.43037H4.87007C4.70045 1.43037 4.56236 1.56837 4.56236 1.73808V11.3975C4.56236 11.6737 4.33838 11.8977 4.06211 11.8977C3.78584 11.8977 3.56185 11.6737 3.56185 11.3975V1.7379C3.56185 1.01653 4.1487 0.429688 4.87007 0.429688H21.8407C22.397 0.429688 22.92 0.64629 23.3133 1.03963L27.8098 5.53574C28.2032 5.92917 28.4199 6.45218 28.4199 7.00845V31.1376C28.4198 31.859 27.833 32.446 27.1117 32.446Z" fill="black"/>
<path fill-rule="evenodd" clip-rule="evenodd" d="M27.7777 6.8531H22.4966C22.2203 6.8531 21.9963 6.62911 21.9963 6.35284V1.07196C21.9963 0.795694 22.2203 0.571709 22.4966 0.571709C22.7729 0.571709 22.9968 0.795694 22.9968 1.07196V5.85259H27.7777C28.054 5.85259 28.278 6.07657 28.278 6.35284C28.278 6.62911 28.054 6.8531 27.7777 6.8531Z" fill="black"/>
<path fill-rule="evenodd" clip-rule="evenodd" d="M4.26661 19.2891C3.99034 19.2891 3.76636 19.0651 3.76636 18.7888V14.0894C3.76636 13.8131 3.99034 13.5891 4.26661 13.5891H6.02496C6.8879 13.5891 7.58999 14.2912 7.58999 15.1542C7.58999 16.0171 6.8879 16.7191 6.02496 16.7191H4.76686V18.7888C4.76686 19.0651 4.54288 19.2891 4.26661 19.2891ZM4.76686 15.7185H6.02496C6.33623 15.7185 6.58949 15.4654 6.58949 15.154C6.58949 14.8428 6.33632 14.5896 6.02496 14.5896H4.76686V15.7185Z" fill="black"/>
<path fill-rule="evenodd" clip-rule="evenodd" d="M10.4956 19.2891H9.10389C8.82762 19.2891 8.60364 19.0651 8.60364 18.7888V14.0894C8.60364 13.8131 8.82762 13.5891 9.10389 13.5891H10.4956C11.5607 13.5891 12.4273 14.4556 12.4273 15.5209V17.3575C12.4273 18.4225 11.5607 19.2891 10.4956 19.2891ZM9.60414 18.2886H10.4956C11.009 18.2886 11.4267 17.8708 11.4267 17.3575V15.5209C11.4267 15.0074 11.0089 14.5897 10.4956 14.5897H9.60414V18.2886Z" fill="black"/>
<path fill-rule="evenodd" clip-rule="evenodd" d="M13.9956 19.2889C13.7193 19.2889 13.4954 19.0649 13.4954 18.7887V14.0892C13.4954 13.813 13.7193 13.589 13.9956 13.589H16.8187C17.095 13.589 17.319 13.813 17.319 14.0892C17.319 14.3655 17.095 14.5895 16.8187 14.5895H14.496V18.7887C14.4959 19.0649 14.272 19.2889 13.9956 19.2889Z" fill="black"/>
<path fill-rule="evenodd" clip-rule="evenodd" d="M16.2795 16.7195H13.9956C13.7193 16.7195 13.4954 16.4955 13.4954 16.2192C13.4954 15.9429 13.7193 15.7189 13.9956 15.7189H16.2795C16.5558 15.7189 16.7797 15.9429 16.7797 16.2192C16.7797 16.4956 16.5558 16.7195 16.2795 16.7195Z" fill="black"/>
<path fill-rule="evenodd" clip-rule="evenodd" d="M19.1238 21.9811H1.56633C0.702612 21.9811 0 21.2784 0 20.4148V12.4659C0 11.6022 0.702699 10.8996 1.56633 10.8996H19.1238C19.9875 10.8996 20.6901 11.6023 20.6901 12.4659V20.4147C20.6901 21.2784 19.9875 21.9811 19.1238 21.9811ZM1.56633 11.9001C1.25428 11.9001 1.00051 12.154 1.00051 12.4659V20.4147C1.00051 20.7267 1.25437 20.9805 1.56633 20.9805H19.1238C19.4359 20.9805 19.6896 20.7266 19.6896 20.4147V12.4659C19.6896 12.1538 19.4358 11.9 19.1238 11.9L1.56633 11.9001Z" fill="black"/>
</svg>
