<svg width="38" height="12" viewBox="0 0 38 12" fill="none" xmlns="http://www.w3.org/2000/svg">
<path d="M16.465 11.8271H13.3867L15.3121 0.210815H18.3902L16.465 11.8271Z" fill="white"/>
<path d="M27.6246 0.494431C27.0174 0.259391 26.0544 -0.00012207 24.8636 -0.00012207C21.8237 -0.00012207 19.6831 1.58159 19.6699 3.84297C19.6447 5.5114 21.2026 6.4381 22.3678 6.99441C23.5587 7.56287 23.9636 7.93391 23.9636 8.44061C23.9514 9.21882 23.0012 9.57754 22.1149 9.57754C20.886 9.57754 20.2275 9.3926 19.2267 8.95964L18.8214 8.77404L18.3906 11.3817C19.1126 11.7026 20.4427 11.9874 21.8237 11.9999C25.0537 11.9999 27.1565 10.4426 27.1814 8.03279C27.1937 6.71042 26.371 5.69717 24.5975 4.86919C23.5208 4.33768 22.8615 3.97929 22.8615 3.43547C22.8741 2.94108 23.4192 2.4347 24.6345 2.4347C25.6352 2.4099 26.3705 2.64461 26.9275 2.87948L27.2059 3.00284L27.6246 0.494431Z" fill="white"/>
<path d="M31.7157 7.71189C31.9692 7.04454 32.9447 4.46173 32.9447 4.46173C32.9319 4.48654 33.1977 3.78207 33.3497 3.34961L33.5648 4.35054C33.5648 4.35054 34.1478 7.1311 34.2743 7.71189C33.7932 7.71189 32.3237 7.71189 31.7157 7.71189ZM35.5154 0.210815H33.1344C32.4001 0.210815 31.8423 0.420725 31.5255 1.17463L26.9531 11.827H30.1831C30.1831 11.827 30.7148 10.3932 30.8291 10.0845C31.1834 10.0845 34.3255 10.0845 34.7814 10.0845C34.8697 10.4923 35.1486 11.827 35.1486 11.827H37.9988L35.5154 0.210815Z" fill="white"/>
<path d="M10.8187 0.210815L7.80408 8.13203L7.47466 6.52552C6.91732 4.67181 5.16937 2.65779 3.21875 1.65637L5.98005 11.8148H9.23523L14.0737 0.210815H10.8187Z" fill="white"/>
<path d="M5.0033 0.210815H0.0506674L0 0.445527C3.86336 1.4095 6.42199 3.73313 7.47322 6.52601L6.39657 1.18727C6.21932 0.445362 5.6746 0.235288 5.0033 0.210815Z" fill="white"/>
</svg>
